<svg width="112" height="19" viewBox="0 0 112 19" fill="none" xmlns="http://www.w3.org/2000/svg">
<path d="M9.48326 15.5819C9.80106 15.3901 10.1989 15.3901 10.5167 15.5819L14.151 17.7754C14.9083 18.2325 15.8425 17.5535 15.6416 16.692L14.6771 12.5578C14.5928 12.1963 14.7156 11.8178 14.9962 11.5748L18.2121 8.7889C18.8801 8.21013 18.5239 7.11271 17.6432 7.03677L13.4095 6.67169C13.0406 6.63989 12.7195 6.40691 12.5749 6.06612L10.9205 2.16859C10.5757 1.35623 9.42432 1.35623 9.07949 2.16859L7.42511 6.06612C7.28045 6.40691 6.95936 6.63989 6.59051 6.67169L2.35383 7.03703C1.4736 7.11293 1.11704 8.20947 1.78428 8.78856L4.99532 11.5754C5.27505 11.8182 5.39768 12.1957 5.31401 12.5565L4.35429 16.6957C4.15464 17.5567 5.08842 18.2344 5.84518 17.7777L9.48326 15.5819Z" fill="#FFDE00"/>
<path d="M32.4833 15.5819C32.8011 15.3901 33.1989 15.3901 33.5167 15.5819L37.151 17.7754C37.9083 18.2325 38.8425 17.5535 38.6416 16.692L37.6771 12.5578C37.5928 12.1963 37.7156 11.8178 37.9962 11.5748L41.2121 8.7889C41.8801 8.21013 41.5239 7.11271 40.6432 7.03677L36.4095 6.67169C36.0406 6.63989 35.7195 6.40691 35.5749 6.06612L33.9205 2.16859C33.5757 1.35623 32.4243 1.35623 32.0795 2.16859L30.4251 6.06612C30.2805 6.40691 29.9594 6.63989 29.5905 6.67169L25.3538 7.03703C24.4736 7.11293 24.117 8.20947 24.7843 8.78856L27.9953 11.5754C28.275 11.8182 28.3977 12.1957 28.314 12.5565L27.3543 16.6957C27.1546 17.5567 28.0884 18.2344 28.8452 17.7777L32.4833 15.5819Z" fill="#FFDE00"/>
<path d="M55.4833 15.5819C55.8011 15.3901 56.1989 15.3901 56.5167 15.5819L60.151 17.7754C60.9083 18.2325 61.8425 17.5535 61.6416 16.692L60.6771 12.5578C60.5928 12.1963 60.7156 11.8178 60.9962 11.5748L64.2121 8.7889C64.8801 8.21013 64.5239 7.11271 63.6432 7.03677L59.4095 6.67169C59.0406 6.63989 58.7195 6.40691 58.5749 6.06612L56.9205 2.16859C56.5757 1.35623 55.4243 1.35623 55.0795 2.16859L53.4251 6.06612C53.2805 6.40691 52.9594 6.63989 52.5905 6.67169L48.3538 7.03703C47.4736 7.11293 47.117 8.20947 47.7843 8.78856L50.9953 11.5754C51.275 11.8182 51.3977 12.1957 51.314 12.5565L50.3543 16.6957C50.1546 17.5567 51.0884 18.2344 51.8452 17.7777L55.4833 15.5819Z" fill="#FFDE00"/>
<path d="M78.4833 15.5819C78.8011 15.3901 79.1989 15.3901 79.5167 15.5819L83.151 17.7754C83.9083 18.2325 84.8425 17.5535 84.6416 16.692L83.6771 12.5578C83.5928 12.1963 83.7156 11.8178 83.9962 11.5748L87.2121 8.7889C87.8801 8.21013 87.5239 7.11271 86.6432 7.03677L82.4095 6.67169C82.0406 6.63989 81.7195 6.40691 81.5749 6.06612L79.9205 2.16859C79.5757 1.35623 78.4243 1.35623 78.0795 2.16859L76.4251 6.06612C76.2805 6.40691 75.9594 6.63989 75.5905 6.67169L71.3538 7.03703C70.4736 7.11293 70.117 8.20947 70.7843 8.78856L73.9953 11.5754C74.275 11.8182 74.3977 12.1957 74.314 12.5565L73.3543 16.6957C73.1546 17.5567 74.0884 18.2344 74.8452 17.7777L78.4833 15.5819Z" fill="#FFDE00"/>
<path d="M102 13.4V4.1L103.71 8.13L108.09 8.5L104.77 11.39L105.76 15.67L102 13.4ZM110.209 8.79189C110.877 8.21268 110.52 7.11442 109.638 7.03964L105.411 6.68098C105.041 6.64962 104.719 6.41629 104.575 6.07479L102.921 2.17237C102.576 1.35934 101.424 1.35934 101.079 2.17237L99.4253 6.07479C99.2806 6.41629 98.9587 6.64962 98.5891 6.68098L94.3586 7.03989C93.4776 7.11464 93.12 8.21202 93.7877 8.79154L96.9953 11.5754C97.275 11.8182 97.3977 12.1957 97.314 12.5565L96.3543 16.6957C96.1546 17.5567 97.0884 18.2344 97.8452 17.7777L101.483 15.5819C101.801 15.3901 102.199 15.3901 102.517 15.5819L106.151 17.7754C106.908 18.2325 107.843 17.5535 107.642 16.692L106.677 12.5578C106.593 12.1963 106.716 11.8178 106.996 11.5748L110.209 8.79189Z" fill="#FFDE00"/>
</svg>
